<svg xmlns="http://www.w3.org/2000/svg">
  <symbol id="github" viewBox="0 0 496 512">
    <path d="M165.9 397.4c0 2-2.3 3.6-5.2 3.6-3.3.3-5.6-1.3-5.6-3.6 0-2 2.3-3.6 5.2-3.6 3-.3 5.6 1.3 5.6 3.6zm-31.1-4.5c-.7 2 1.3 4.3 4.3 4.9 2.6 1 5.6 0 6.2-2s-1.3-4.3-4.3-5.2c-2.6-.7-5.5.3-6.2 2.3zm44.2-1.7c-2.9.7-4.9 2.6-4.6 4.9.3 2 2.9 3.3 5.9 2.6 2.9-.7 4.9-2.6 4.6-4.6-.3-1.9-3-3.2-5.9-2.9zM244.8 8C106.1 8 0 113.3 0 252c0 110.9 69.8 205.8 169.5 239.2 12.8 2.3 17.3-5.6 17.3-12.1 0-6.2-.3-40.4-.3-61.4 0 0-70 15-84.7-29.8 0 0-11.4-29.1-27.8-36.6 0 0-22.9-15.7 1.6-15.4 0 0 24.9 2 38.6 25.8 21.9 38.6 58.6 27.5 72.9 20.9 2.3-16 8.8-27.1 16-33.7-55.9-6.2-112.3-14.3-112.3-110.5 0-27.5 7.6-41.3 23.6-58.9-2.6-6.5-11.1-33.3 2.6-67.9 20.9-6.5 69 27 69 27 20-5.6 41.5-8.5 62.8-8.5s42.8 2.9 62.8 8.5c0 0 48.1-33.6 69-27 13.7 34.7 5.2 61.4 2.6 67.9 16 17.7 25.8 31.5 25.8 58.9 0 96.5-58.9 104.2-114.8 110.5 9.2 7.9 17 22.9 17 46.4 0 33.7-.3 75.4-.3 83.6 0 6.5 4.6 14.4 17.3 12.1C428.2 457.8 496 362.9 496 252 496 113.3 383.5 8 244.8 8zM97.2 352.9c-1.3 1-1 3.3.7 5.2 1.6 1.6 3.9 2.3 5.2 1 1.3-1 1-3.3-.7-5.2-1.6-1.6-3.9-2.3-5.2-1zm-10.8-8.1c-.7 1.3.3 2.9 2.3 3.9 1.6 1 3.6.7 4.3-.7.7-1.3-.3-2.9-2.3-3.9-2-.6-3.6-.3-4.3.7zm32.4 35.6c-1.6 1.3-1 4.3 1.3 6.2 2.3 2.3 5.2 2.6 6.5 1 1.3-1.3.7-4.3-1.3-6.2-2.2-2.3-5.2-2.6-6.5-1zm-11.4-14.7c-1.6 1-1.6 3.6 0 5.9 1.6 2.3 4.3 3.3 5.6 2.3 1.6-1.3 1.6-3.9 0-6.2-1.4-2.3-4-3.3-5.6-2z" />
  </symbol>
  <symbol id="mouseTpad" viewBox="0 0 197.51 197.51">
    <path d="M174.8,98.59a8.94,8.94,0,0,1,6.37,2.62l37.46,37.47a9,9,0,0,1,0,12.73l-66.22,66.22a9,9,0,0,1-12.73,0l-37.47-37.46a9,9,0,0,1,0-12.73l66.23-66.23a8.93,8.93,0,0,1,6.36-2.62m0-3a12,12,0,0,0-8.48,3.5l-66.23,66.23a12,12,0,0,0,0,17l37.47,37.47a12,12,0,0,0,17,0l66.23-66.23a12,12,0,0,0,0-17L183.29,99.09a12,12,0,0,0-8.49-3.5Z" transform="translate(-26.74 -25.74)"/><line x1="160.76" y1="160.76" x2="143.95" y2="143.95" style="fill:none;;stroke-miterlimit:10;stroke-width:3px"/><line x1="184.01" y1="101.84" x2="101.84" y2="184.01" style="fill:none;;stroke-miterlimit:10;stroke-width:3px"/><path d="M105,28.74a8.9,8.9,0,0,1,6.36,2.63l37.47,37.46a9,9,0,0,1,0,12.73L82.56,147.79a9,9,0,0,1-12.73,0L32.37,110.32a9,9,0,0,1,0-12.73L98.59,31.37A8.9,8.9,0,0,1,105,28.74m0-3a12,12,0,0,0-8.49,3.5L30.24,95.47a12,12,0,0,0,0,17l37.47,37.47a12,12,0,0,0,17,0l66.23-66.23a12,12,0,0,0,0-17L113.44,29.24a12,12,0,0,0-8.48-3.5Z" transform="translate(-26.74 -25.74)"/><line x1="104.83" y1="22.83" x2="73.62" y2="54.05" style="fill:none;;stroke-miterlimit:10;stroke-width:3px"/>
  </symbol>
  <symbol id="qwerty" viewBox="0 0 479.87 76.2">
    <path d="M235.63,90.28a9,9,0,0,1,9,9v52.18a9,9,0,0,1-9,9H183.45a9,9,0,0,1-9-9V99.28a9,9,0,0,1,9-9h52.18m0-3H183.45a12,12,0,0,0-12,12v52.18a12,12,0,0,0,12,12h52.18a12,12,0,0,0,12-12V99.28a12,12,0,0,0-12-12Z" transform="translate(-10 -87.28)"/><path d="M197.46,150.06V103h26.46v2.22H200V125h23v2.23H200v20.58h24v2.23Z" transform="translate(-10 -87.28)"/><path d="M154.91,90.29a9,9,0,0,1,9,9v52.18a9,9,0,0,1-9,9H102.73a9,9,0,0,1-9-9V99.29a9,9,0,0,1,9-9h52.18m0-3H102.73a12,12,0,0,0-12,12v52.18a12,12,0,0,0,12,12h52.18a12,12,0,0,0,12-12V99.29a12,12,0,0,0-12-12Z" transform="translate(-10 -87.28)"/><path d="M113.4,150.07,101.11,103h2.64L115,146.83h.2l12-43.87h3.24l12,43.87h.2L154,103h2.57l-12.42,47.11H141l-12.15-44.34h-.2l-12.22,44.34Z" transform="translate(-10 -87.28)"/><path d="M74.18,90.29a9,9,0,0,1,9,9v52.18a9,9,0,0,1-9,9H22a9,9,0,0,1-9-9V99.29a9,9,0,0,1,9-9H74.18m0-3H22a12,12,0,0,0-12,12v52.18a12,12,0,0,0,12,12H74.18a12,12,0,0,0,12-12V99.29a12,12,0,0,0-12-12Z" transform="translate(-10 -87.28)"/><path d="M56.53,156.85H49.91c-1.89,0-2.83-.93-2.83-2.78v-6.6q-8.44-.33-13-6.44T29.46,123.1q0-12.15,4.9-18.25t13.73-6.11q8.85,0,13.74,6.11t4.89,18.25q0,11.68-4.52,17.76a16.15,16.15,0,0,1-12.69,6.54v7.23h7Zm-8.44-11.61q7.36,0,11.64-5.13t4.29-15v-4q0-9.85-4.29-15T48.09,101a14.38,14.38,0,0,0-11.64,5.13q-4.29,5.13-4.29,15v4q0,9.85,4.29,15A14.38,14.38,0,0,0,48.09,145.24Z" transform="translate(-10 -87.28)"/><path d="M316.44,90.29a9,9,0,0,1,9,9v52.18a9,9,0,0,1-9,9H264.26a9,9,0,0,1-9-9V99.29a9,9,0,0,1,9-9h52.18m0-3H264.26a12,12,0,0,0-12,12v52.18a12,12,0,0,0,12,12h52.18a12,12,0,0,0,12-12V99.29a12,12,0,0,0-12-12Z" transform="translate(-10 -87.28)"/><path d="M278.54,150.07H276V103h18.3q5.94,0,9,3.44t3.07,9.38c0,3.83-1,6.86-2.87,9.11s-4.74,3.47-8.47,3.65l12.49,21.53h-2.84l-12.28-21.39H278.54Zm15.8-23.62a10.58,10.58,0,0,0,4.11-.74,8.58,8.58,0,0,0,2.94-2,7.88,7.88,0,0,0,1.76-2.92,10.83,10.83,0,0,0,.57-3.5v-3a10.83,10.83,0,0,0-.57-3.5,8,8,0,0,0-1.76-2.93,8.56,8.56,0,0,0-2.94-2,10.4,10.4,0,0,0-4.11-.74h-15.8v21.26Z" transform="translate(-10 -87.28)"/><path d="M397.14,90.29a9,9,0,0,1,9,9v52.18a9,9,0,0,1-9,9H345a9,9,0,0,1-9-9V99.29a9,9,0,0,1,9-9h52.18m0-3H345a12,12,0,0,0-12,12v52.18a12,12,0,0,0,12,12h52.18a12,12,0,0,0,12-12V99.29a12,12,0,0,0-12-12Z" transform="translate(-10 -87.28)"/><path d="M372.29,105.19v44.88H369.8V105.19H353.26V103h35.57v2.23Z" transform="translate(-10 -87.28)"/><path d="M477.87,90.29a9,9,0,0,1,9,9v52.18a9,9,0,0,1-9,9H425.68a9,9,0,0,1-9-9V99.29a9,9,0,0,1,9-9h52.19m0-3H425.68a12,12,0,0,0-12,12v52.18a12,12,0,0,0,12,12h52.19a12,12,0,0,0,12-12V99.29a12,12,0,0,0-12-12Z" transform="translate(-10 -87.28)"/><path d="M450.53,150.07V130.5L434.26,103h2.83l14.58,24.84h.21L466.52,103h2.77L453,130.5v19.57Z" transform="translate(-10 -87.28)"/>
  </symbol>
  <symbol id="azerty" viewBox="0 0 479.87 76.2">
    <path d="M235.63,90.28a9,9,0,0,1,9,9v52.18a9,9,0,0,1-9,9H183.45a9,9,0,0,1-9-9V99.28a9,9,0,0,1,9-9h52.18m0-3H183.45a12,12,0,0,0-12,12v52.18a12,12,0,0,0,12,12h52.18a12,12,0,0,0,12-12V99.28a12,12,0,0,0-12-12Z" transform="translate(-10 -87.28)"/><path d="M197.46,150.06V103h26.46v2.22H200V125h23v2.23H200v20.58h24v2.23Z" transform="translate(-10 -87.28)"/><path d="M154.91,90.29a9,9,0,0,1,9,9v52.18a9,9,0,0,1-9,9H102.73a9,9,0,0,1-9-9V99.29a9,9,0,0,1,9-9h52.18m0-3H102.73a12,12,0,0,0-12,12v52.18a12,12,0,0,0,12,12h52.18a12,12,0,0,0,12-12V99.29a12,12,0,0,0-12-12Z" transform="translate(-10 -87.28)"/><path d="M145.73,150.07H112.45v-2.36l29.3-42.52H114V103h30.45v2.36l-29.3,42.53h30.58Z" transform="translate(-10 -87.28)"/><path d="M74.18,90.29a9,9,0,0,1,9,9v52.18a9,9,0,0,1-9,9H22a9,9,0,0,1-9-9V99.29a9,9,0,0,1,9-9H74.18m0-3H22a12,12,0,0,0-12,12v52.18a12,12,0,0,0,12,12H74.18a12,12,0,0,0,12-12V99.29a12,12,0,0,0-12-12Z" transform="translate(-10 -87.28)"/><path d="M64,146.66l-5.47-15.32h-21l-5.47,15.32H29.53L46.47,99.55h3.24l16.94,47.11ZM48.16,102h-.27l-9.65,27.13H57.88Z" transform="translate(-10 -87.28)"/><path d="M316.44,90.29a9,9,0,0,1,9,9v52.18a9,9,0,0,1-9,9H264.26a9,9,0,0,1-9-9V99.29a9,9,0,0,1,9-9h52.18m0-3H264.26a12,12,0,0,0-12,12v52.18a12,12,0,0,0,12,12h52.18a12,12,0,0,0,12-12V99.29a12,12,0,0,0-12-12Z" transform="translate(-10 -87.28)"/><path d="M278.54,150.07H276V103h18.3q5.94,0,9,3.44t3.07,9.38c0,3.83-1,6.86-2.87,9.11s-4.74,3.47-8.47,3.65l12.49,21.53h-2.84l-12.28-21.39H278.54Zm15.8-23.62a10.58,10.58,0,0,0,4.11-.74,8.58,8.58,0,0,0,2.94-2,7.88,7.88,0,0,0,1.76-2.92,10.83,10.83,0,0,0,.57-3.5v-3a10.83,10.83,0,0,0-.57-3.5,8,8,0,0,0-1.76-2.93,8.56,8.56,0,0,0-2.94-2,10.4,10.4,0,0,0-4.11-.74h-15.8v21.26Z" transform="translate(-10 -87.28)"/><path d="M397.14,90.29a9,9,0,0,1,9,9v52.18a9,9,0,0,1-9,9H345a9,9,0,0,1-9-9V99.29a9,9,0,0,1,9-9h52.18m0-3H345a12,12,0,0,0-12,12v52.18a12,12,0,0,0,12,12h52.18a12,12,0,0,0,12-12V99.29a12,12,0,0,0-12-12Z" transform="translate(-10 -87.28)"/><path d="M372.29,105.19v44.88H369.8V105.19H353.26V103h35.57v2.23Z" transform="translate(-10 -87.28)"/><path d="M477.87,90.29a9,9,0,0,1,9,9v52.18a9,9,0,0,1-9,9H425.68a9,9,0,0,1-9-9V99.29a9,9,0,0,1,9-9h52.19m0-3H425.68a12,12,0,0,0-12,12v52.18a12,12,0,0,0,12,12h52.19a12,12,0,0,0,12-12V99.29a12,12,0,0,0-12-12Z" transform="translate(-10 -87.28)"/><path d="M450.53,150.07V130.5L434.26,103h2.83l14.58,24.84h.21L466.52,103h2.77L453,130.5v19.57Z" transform="translate(-10 -87.28)"/>
  </symbol>
  <symbol id="torusKnot" viewBox="0 0 209.48 209.02">
    <path d="M314.21,179.07c-.39-2.38.53-5.79.63-9.25a28.09,28.09,0,0,0-1.71-10.89c-.73-1.92-.64-3.46,1.11-4.74,7.56-5.54,11.8-13.75,16.87-21.27,2.14-3.16,2.67-7,3.91-10.6.19-.54.24-1.14.47-1.65,4.73-10.22,2.69-21.08,2.85-31.71,0-2.4-1.39-4.86-2.31-7.23-2.45-6.26-3.88-12.91-7.59-18.68-2.38-3.69-5.57-6.67-8.2-10.12-1.7-2.22-3.69-4.2-5.37-6.42-2.39-3.19-5.67-5.13-9.11-6.87-4.32-2.2-8.72-4.24-13-6.56-3.21-1.74-6.59-2.17-10.15-2.37-5.62-.3-11.23-.91-16.85-1.37a11,11,0,0,0-4.38.27c-7.33,2.38-14.69,4.66-22,7-3.85,1.26-6.45,4.43-9.67,6.66a74.37,74.37,0,0,0-7.91,6.25c-2.48,2.26-5.09.8-7.4.28-4.54-1-8.92-.4-13.37.1-3.33.37-6.7.47-10,.91-5.76.76-10.72,4-16.2,5.6-7.19,2.14-12.08,7.7-18,11.77-8.49,5.84-12.44,15.15-17.77,23.31-2.25,3.44-2.36,8.3-3.39,12.52-1.13,4.71-2.15,9.45-3.31,14.15-.56,2.27.2,4.43.4,6.62.51,5.47,1.22,10.92,2,16.36a12.46,12.46,0,0,0,1.48,3.89c3.11,5.71,6.32,11.35,9.42,17.06,1.24,2.3,3.52,3.38,5.37,5,3.76,3.17,7.6,6.24,11.37,9.4,2.66,2.22,5.93,3.09,9.08,4.23,4.31,1.55,8.66,3,13,4.49a3.57,3.57,0,0,1,2.55,2.37c.52,1.56,1.28,3,1.78,4.6,2.07,6.61,7,11.42,10.62,17,3.93,6.11,10.19,9.64,15.48,14.24,6.53,5.65,15,7.15,22.54,10.62,1.5.69,3.44.49,5.09.51,8.07.07,16.21,1.91,24.19-.81,6.59-2.26,13.22-4.41,19.77-6.78a13,13,0,0,0,3.77-2.7c3.39-3,6.57-6.22,10.09-9,4.51-3.59,6.07-8.86,8.39-13.71.85-1.78,1.37-3.73,2.33-5.43C313.93,191.15,314.52,185.75,314.21,179.07ZM269,75.66c3.35-.51,6.68.92,10.17,1.87,6.38,1.73,11.13,5.87,15.06,10.58a25.53,25.53,0,0,1,6,13.53A37.45,37.45,0,0,1,297,121c-.79,1.84-1.45,1.4-2.52.27a44.47,44.47,0,0,0-9.48-8.19,13.53,13.53,0,0,1-4.25-3.72,77.39,77.39,0,0,1-9.24-16.77c-2.07-5.37-4.07-10.77-7.91-15.2-1-1.17-.52-1.61.65-1.69C265.71,75.58,267.19,75.66,269,75.66ZM200,84.51c-.38,5.32.57,10.34-1,15.28a31.52,31.52,0,0,0-1.45,10.2c.18,5.27-2.72,8.78-5.7,12.36a17.45,17.45,0,0,0-3.08,4.72c-1.36,3.51-3.53,6.71-4.07,10.54-.17,1.23-.6,1.53-1.74.65-2.23-1.71-3.15-4.35-4.75-6.5-3.14-4.2-3.93-9.42-3.93-14.25,0-5.36.8-10.9,3.71-15.87a35.93,35.93,0,0,1,10.92-11.8C192.11,87.66,195.94,86.39,200,84.51Zm46.36,111.7a15.42,15.42,0,0,1-3.19,0,37.92,37.92,0,0,1-20.31-12c-1-1.15-.79-1.82.35-2.49a28.88,28.88,0,0,1,7.27-3.5c3.23-.85,6.64-1.34,9.58-3,5-2.78,10.08-2.78,15.45-1.44,4.54,1.14,9.21.91,13.84.41,2.13-.23,2.71.3,1.9,2.32-1.42,3.55-2.64,7.05-5.28,10.14C260.65,192.8,254.08,195.62,246.31,196.21Zm13.88-52.74c-.27.15-.35.24-.41.22-.95-.22-1.9-.42-2.84-.68-8.52-2.41-17.1-3.68-25.92-1.72-4.63,1-9.3,1.87-14,2.8-.57.12-1.22.35-1.62-.16s.06-.93.27-1.37a20.08,20.08,0,0,1,4-6.14,76.46,76.46,0,0,0,6.52-7.06,27.36,27.36,0,0,0,4.15-6.65c2.53-5.92,3.83-12.24,6.22-18.2.87-2.17,1.37-4.52,2.63-6.58,2.25,1.78,2.61,4.24,3.07,6.65,2.34,12.31,5.68,24.16,14.22,33.87A18.19,18.19,0,0,1,260.19,143.47Z" transform="translate(-130.66 -27.75)" style="fill:none;stroke-miterlimit:10;stroke-width:3px"/><path d="M177.57,182.86c13.93,4.64,37.31,2.2,47.12-2.08" transform="translate(-130.66 -27.75)" style="fill:none;stroke-miterlimit:10;stroke-width:3px"/><path d="M180.9,136.05c6.6,6.45,18.6,12.45,38.6,7.45" transform="translate(-130.66 -27.75)" style="fill:none;stroke-miterlimit:10;stroke-width:3px"/><path d="M270.73,177.71c3.77-10.21-5.23-27.21-14.23-39.21" transform="translate(-130.66 -27.75)" style="fill:none;stroke-miterlimit:10;stroke-width:3px"/><path d="M313.68,160.56c-7.18-22.06-11.43-33.85-21.8-41.95" transform="translate(-130.66 -27.75)" style="fill:none;stroke-miterlimit:10;stroke-width:3px"/><path d="M200,88.31c.55-10.81,9.28-29.4,23.41-40.1" transform="translate(-130.66 -27.75)" style="fill:none;stroke-miterlimit:10;stroke-width:3px"/><path d="M237.35,102.56C244.5,84.5,250.43,74.78,267,75.64" transform="translate(-130.66 -27.75)" style="fill:none;stroke-miterlimit:10;stroke-width:3px"/>
  </symbol>
  <symbol id="node" viewBox="0 0 135 135">
    <circle cx="67.5" cy="67.5" r="66" style="fill:none;stroke-miterlimit:10;stroke-width:6px"/>
  </symbol>
</svg>
