<?xml version="1.0" standalone="no"?>
<!DOCTYPE svg PUBLIC "-//W3C//DTD SVG 20010904//EN"
 "http://www.w3.org/TR/2001/REC-SVG-20010904/DTD/svg10.dtd">
<svg version="1.0" xmlns="http://www.w3.org/2000/svg"
 width="260.000000pt" height="260.000000pt" viewBox="0 0 260.000000 260.000000"
 preserveAspectRatio="xMidYMid meet">
<metadata>
Created by potrace 1.11, written by Peter Selinger 2001-2013
</metadata>
<g transform="translate(0.000000,260.000000) scale(0.100000,-0.100000)"
fill="#000000" stroke="none">
<path d="M435 2501 c-70 -20 -186 -81 -178 -94 3 -4 -4 -11 -16 -14 -12 -3
-21 -8 -21 -12 0 -3 -16 -23 -35 -45 -19 -21 -35 -43 -35 -48 0 -5 -8 -22 -19
-36 -10 -15 -26 -56 -34 -91 -15 -57 -17 -162 -17 -858 0 -917 -6 -855 94
-1032 5 -9 31 -34 58 -56 26 -22 57 -49 68 -59 11 -11 20 -16 20 -12 0 4 12
-1 28 -12 15 -10 56 -26 92 -35 57 -14 160 -16 861 -17 848 0 856 1 942 49 19
11 38 17 41 14 3 -4 6 -1 6 5 0 7 5 12 10 12 6 0 23 11 38 24 15 14 38 34 51
45 13 12 21 21 18 21 -4 0 2 9 13 20 28 28 68 111 85 177 13 50 15 175 13 878
l-3 820 -24 60 c-13 33 -27 62 -30 65 -3 3 -13 17 -21 31 -20 36 -88 109 -100
109 -5 0 -10 4 -10 9 0 9 -110 70 -140 77 -11 2 -30 7 -42 11 -13 4 -390 9
-838 10 -745 1 -820 0 -875 -16z"/>
</g>
</svg>
